<svg width="24" height="21" viewBox="0 0 24 21" fill="none" xmlns="http://www.w3.org/2000/svg">
<path  d="M1.92546 12.1129L2.00546 11.9869L6.83146 4.43691C6.84743 4.41172 6.86993 4.39132 6.89657 4.3779C6.92321 4.36447 6.95299 4.35852 6.98274 4.36067C7.0125 4.36283 7.04111 4.37301 7.06554 4.39013C7.08996 4.40725 7.10929 4.43068 7.12146 4.45791C7.92746 6.26491 8.62146 8.51191 8.29746 9.91091C8.07563 10.6423 7.75644 11.3406 7.34846 11.9869C7.29346 12.0869 7.23246 12.1949 7.16746 12.2939C7.15232 12.3163 7.13189 12.3345 7.10799 12.3471C7.08409 12.3596 7.05746 12.3661 7.03046 12.3659H2.06446C2.035 12.3658 2.00611 12.3578 1.98078 12.3428C1.95545 12.3277 1.93461 12.3062 1.92043 12.2804C1.90624 12.2545 1.89923 12.2254 1.90011 12.196C1.901 12.1665 1.90975 12.1378 1.92546 12.1129ZM23.4375 13.5129V14.7129C23.4374 14.7457 23.428 14.7779 23.4103 14.8055C23.3925 14.8332 23.3673 14.8552 23.3375 14.8689C22.5055 15.1945 21.7576 15.7034 21.1495 16.3579C19.7925 18.2469 18.7555 20.9479 16.4375 20.9479H6.76446C5.11693 20.9442 3.5383 20.2864 2.37566 19.119C1.21302 17.9517 0.561542 16.3705 0.564463 14.7229V14.6079C0.564463 14.5639 0.581952 14.5217 0.613083 14.4905C0.644214 14.4594 0.686437 14.4419 0.730463 14.4419H6.12046C6.14531 14.4429 6.16971 14.4489 6.19215 14.4596C6.21459 14.4704 6.23461 14.4855 6.25099 14.5043C6.26737 14.523 6.27976 14.5448 6.2874 14.5685C6.29505 14.5922 6.29779 14.6171 6.29546 14.6419C6.25731 14.9982 6.32404 15.358 6.48746 15.6769C6.64452 15.9937 6.88683 16.2603 7.18716 16.4469C7.48749 16.6334 7.83391 16.7325 8.18746 16.7329H10.8555V14.6579H8.21946C8.18864 14.6574 8.15852 14.6486 8.13234 14.6323C8.10615 14.6161 8.08488 14.593 8.07081 14.5655C8.05674 14.5381 8.05038 14.5074 8.05244 14.4766C8.05449 14.4458 8.06487 14.4162 8.08246 14.3909C8.11146 14.3469 8.14346 14.3009 8.18246 14.2499C8.43246 13.8949 8.78846 13.3449 9.14346 12.7179C9.39234 12.2894 9.61443 11.8459 9.80846 11.3899C9.84646 11.3079 9.87746 11.2239 9.90846 11.1419C9.95946 10.9969 10.0085 10.8619 10.0515 10.7269C10.0895 10.6129 10.1205 10.4929 10.1515 10.3799C10.2403 9.98077 10.2832 9.5728 10.2795 9.16391C10.2795 8.99791 10.2715 8.82491 10.2565 8.65891C10.2485 8.47791 10.2265 8.29691 10.2035 8.11591C10.1885 7.95591 10.1595 7.79791 10.1295 7.63191C10.0915 7.38991 10.0385 7.14991 9.97746 6.90791L9.95646 6.81691C9.91046 6.65091 9.87246 6.49291 9.81946 6.32691C9.66846 5.80691 9.49546 5.29991 9.31246 4.82691C9.24546 4.63791 9.16946 4.45691 9.09346 4.27591C8.98146 4.00291 8.86646 3.75591 8.76146 3.52091C8.70846 3.41391 8.66146 3.32091 8.61646 3.22091C8.57146 3.12091 8.51646 2.99591 8.45846 2.88891C8.42046 2.80691 8.37646 2.73091 8.34646 2.65491L8.02046 2.05491C8.01033 2.03672 8.00577 2.01594 8.00736 1.99518C8.00896 1.97441 8.01664 1.95458 8.02944 1.93815C8.04224 1.92173 8.0596 1.90943 8.07934 1.90281C8.09909 1.89619 8.12035 1.89553 8.14046 1.90091L10.1795 2.45391H10.1855H10.1935L10.4625 2.52791L10.7625 2.61191L10.8715 2.64291V1.41791C10.8698 1.14077 10.9774 0.874134 11.171 0.675742C11.3645 0.47735 11.6284 0.363165 11.9055 0.357911C12.0435 0.357728 12.1801 0.385148 12.3074 0.438558C12.4346 0.491967 12.5499 0.570288 12.6465 0.668912C12.8433 0.868502 12.9536 1.13759 12.9535 1.41791V3.21791L13.1705 3.27891C13.1884 3.28448 13.2053 3.29292 13.2205 3.30391C13.2735 3.34391 13.3505 3.40391 13.4475 3.47591C13.5235 3.53691 13.6055 3.61091 13.7045 3.68791C13.9045 3.84591 14.1355 4.04991 14.3925 4.28791C14.4615 4.34691 14.5275 4.40791 14.5925 4.46891C14.9245 4.77791 15.2925 5.13991 15.6505 5.53991C15.7505 5.65191 15.8505 5.76691 15.9505 5.88691C16.0505 6.00691 16.1505 6.12891 16.2505 6.24891C16.3705 6.40891 16.5005 6.57491 16.6125 6.74891C16.6655 6.83091 16.7265 6.91491 16.7785 6.99691C16.9235 7.21591 17.0515 7.44291 17.1735 7.66991C17.2245 7.76991 17.2735 7.88891 17.3245 8.00191C17.4587 8.29772 17.5629 8.60627 17.6355 8.92291C17.6561 8.98813 17.6708 9.05507 17.6795 9.12291V9.13791C17.7001 9.23269 17.7128 9.32902 17.7175 9.42591C17.7493 9.74374 17.7314 10.0646 17.6645 10.3769C17.6352 10.5124 17.5978 10.6459 17.5525 10.7769C17.5065 10.9069 17.4605 11.0419 17.4015 11.1699C17.2865 11.4401 17.1494 11.7003 16.9915 11.9479C16.9405 12.0389 16.8795 12.1369 16.8185 12.2279C16.7575 12.3189 16.6835 12.4169 16.6185 12.5059C16.5345 12.6199 16.4455 12.7399 16.3535 12.8469C16.274 12.9597 16.1882 13.0679 16.0965 13.1709C15.9685 13.3219 15.8465 13.4649 15.7195 13.6019C15.6435 13.6919 15.5615 13.7829 15.4775 13.8649C15.3935 13.9469 15.3115 14.0379 15.2355 14.1149C15.1075 14.2429 15.0015 14.3419 14.9115 14.4239L14.7015 14.6169C14.6704 14.6439 14.6306 14.6588 14.5895 14.6589H12.9535V16.7419H14.9965C15.4523 16.742 15.8931 16.5792 16.2395 16.2829C16.6851 15.894 17.1071 15.4789 17.5035 15.0399C17.5242 15.0166 17.5513 14.9999 17.5815 14.9919L23.2255 13.3579C23.2501 13.3508 23.276 13.3495 23.3012 13.3541C23.3263 13.3587 23.3501 13.369 23.3707 13.3843C23.3912 13.3996 23.4079 13.4194 23.4195 13.4423C23.4311 13.4651 23.4372 13.4903 23.4375 13.5159V13.5129Z" fill="#272E4A"/>
</svg>
