<svg width="123" height="73" viewBox="0 0 53 43" fill="none" xmlns="http://www.w3.org/2000/svg">
<path opacity="0.97" d="M58.1569 42.6158C58.6877 42.6304 59.2159 42.5385 59.7105 42.3454C60.2051 42.1524 60.656 41.8622 61.0366 41.492C61.4171 41.1217 61.7196 40.679 61.9261 40.1899C62.1327 39.7008 62.2391 39.1752 62.2391 38.6443C62.2391 38.1134 62.1327 37.5878 61.9261 37.0987C61.7196 36.6096 61.4171 36.1669 61.0366 35.7966C60.656 35.4264 60.2051 35.1362 59.7105 34.9432C59.2159 34.7502 58.6877 34.6582 58.1569 34.6728H46.2699C45.1838 34.6689 44.1432 34.2356 43.3752 33.4676C42.6071 32.6995 42.1739 31.659 42.1699 30.5728V28.3168C42.1734 27.2305 42.6064 26.1896 43.3746 25.4215C44.1427 24.6533 45.1836 24.2202 46.2699 24.2168H58.1569C58.6689 24.2853 59.1895 24.2436 59.684 24.0944C60.1785 23.9452 60.6354 23.6921 61.0241 23.352C61.4128 23.0118 61.7242 22.5925 61.9377 22.1222C62.1511 21.6518 62.2615 21.1413 62.2615 20.6248C62.2615 20.1083 62.1511 19.5978 61.9377 19.1274C61.7242 18.6571 61.4128 18.2378 61.0241 17.8976C60.6354 17.5575 60.1785 17.3044 59.684 17.1552C59.1895 17.0061 58.6689 16.9643 58.1569 17.0328H46.2699C45.1836 17.0294 44.1427 16.5963 43.3746 15.8282C42.6064 15.06 42.1734 14.0191 42.1699 12.9328V11.7128C42.1734 10.6265 42.6064 9.58562 43.3746 8.81746C44.1427 8.0493 45.1836 7.61624 46.2699 7.61281H58.1499C59.1716 7.66781 60.1739 7.31915 60.9409 6.64198C61.7078 5.96482 62.178 5.01339 62.2499 3.99281C62.1792 2.97224 61.7093 2.02063 60.9418 1.34416C60.1744 0.667694 59.1713 0.320859 58.1499 0.378809L4.10293 0.420808C3.017 0.425545 1.9769 0.85903 1.20903 1.62691C0.441151 2.39478 0.00766606 3.43488 0.00292969 4.52081V38.5268C0.00292969 39.5931 0.426518 40.6157 1.18051 41.3697C1.9345 42.1237 2.95713 42.5473 4.02343 42.5473C5.08973 42.5473 6.11237 42.1237 6.86636 41.3697C7.62035 40.6157 8.04393 39.5931 8.04393 38.5268V12.0798C8.04788 10.9936 8.48112 9.95308 9.24916 9.18504C10.0172 8.41699 11.0578 7.98376 12.1439 7.97981H13.3359C14.4221 7.98376 15.4627 8.41699 16.2307 9.18504C16.9987 9.95308 17.432 10.9936 17.4359 12.0798V38.5218C17.3743 39.0359 17.4225 39.5573 17.5771 40.0514C17.7318 40.5456 17.9894 41.0014 18.3331 41.3887C18.6768 41.776 19.0987 42.086 19.5709 42.2984C20.0432 42.5107 20.5551 42.6205 21.0729 42.6205C21.5907 42.6205 22.1027 42.5107 22.5749 42.2984C23.0472 42.086 23.4691 41.776 23.8128 41.3887C24.1564 41.0014 24.4141 40.5456 24.5688 40.0514C24.7234 39.5573 24.7715 39.0359 24.7099 38.5218V12.0798C24.7134 10.9935 25.1464 9.95261 25.9146 9.18446C26.6827 8.4163 27.7236 7.98324 28.8099 7.97981H30.5659C31.6523 7.98324 32.6931 8.4163 33.4613 9.18446C34.2294 9.95261 34.6625 10.9935 34.6659 12.0798V38.4798C34.6667 39.5691 35.0982 40.6139 35.8663 41.3862C36.6343 42.1586 37.6767 42.5959 38.7659 42.6028L58.1569 42.6158Z" fill="#272E4A"/>
</svg>
