<svg width="66" height="33" viewBox="0 0 106 73" fill="none" xmlns="http://www.w3.org/2000/svg">
<path d="M70.8071 36.9564C70.8071 36.6714 70.7359 36.4577 70.5221 36.244L34.7564 0.478234C34.4002 0.122001 33.759 0.122001 33.4027 0.478234L25.3519 8.52909C25.1381 8.74283 25.0669 8.95656 25.0669 9.24155C25.0669 9.52654 25.1381 9.74028 25.3519 9.95402L43.6622 28.3356L0.843093 71.0835C0.558107 71.3685 0.486858 71.7959 0.629351 72.1522C0.771844 72.5084 1.12808 72.7222 1.55556 72.7222H34.9701C35.2551 72.7222 35.4689 72.6509 35.6826 72.4372L70.5934 37.6689C70.6646 37.4551 70.8071 37.2414 70.8071 36.9564Z" fill="white"/>
<path d="M86.3386 52.2032L105.361 33.2516C105.504 33.1091 105.646 32.8954 105.646 32.6816C105.646 32.1829 105.29 31.8267 104.791 31.8267H88.476C88.191 31.8267 87.9772 31.8979 87.7635 32.1117L68.1707 51.7044C68.0282 51.8469 67.8857 52.0607 67.8857 52.2744C67.8857 52.4881 67.957 52.7019 68.1707 52.8444L87.8348 72.4371C88.0485 72.6509 88.2622 72.7221 88.5472 72.7221H104.649C105.076 72.7221 105.433 72.5796 105.575 72.2234C105.718 71.8672 105.646 71.4397 105.361 71.1547L86.3386 52.2032Z" fill="white"/>
</svg>
