<svg width="23" height="16" viewBox="0 0 33 26" fill="none" xmlns="http://www.w3.org/2000/svg">
<path d="M27.1261 2.8791C25.0267 1.89681 22.8057 1.19886 20.5218 0.803711C20.2106 1.37467 19.9283 1.96095 19.676 2.56031C17.2504 2.19 14.7825 2.19 12.3569 2.56031C12.1021 1.96031 11.8163 1.37398 11.5005 0.803711C9.21364 1.19878 6.98998 1.89842 4.88889 2.88398C1.1537 8.30568 -0.528023 14.8806 0.145258 21.4299C2.58484 23.2708 5.32549 24.6741 8.24513 25.5774C8.90148 24.6748 9.48169 23.7192 9.97977 22.7205C9.03131 22.3605 8.11686 21.9166 7.24728 21.3941C7.47662 21.2242 7.70026 21.0469 7.91739 20.8647C10.4435 22.0809 13.2112 22.7125 16.0148 22.7125C18.8185 22.7125 21.5861 22.0809 24.1123 20.8647C24.331 21.0477 24.5555 21.225 24.7824 21.3941C23.9126 21.9189 22.9976 22.3647 22.0482 22.7262C22.546 23.7251 23.1262 24.6807 23.7829 25.5831C26.7053 24.6797 29.4482 23.2743 31.8885 21.4299C32.5599 14.8766 30.8712 8.29866 27.1261 2.8791ZM10.6987 17.6963C9.88455 17.6384 9.12588 17.2626 8.5866 16.65C8.04731 16.0373 7.77071 15.2371 7.81655 14.4222C7.76547 13.6065 8.03963 12.8037 8.57902 12.1897C9.11841 11.5756 9.8791 11.2002 10.6946 11.1457C11.0993 11.1702 11.4952 11.2746 11.8593 11.4528C12.2235 11.6311 12.5487 11.8797 12.8163 12.1843C13.0839 12.4889 13.2885 12.8435 13.4183 13.2276C13.5481 13.6117 13.6006 14.0177 13.5727 14.4222C13.6231 15.237 13.3491 16.0387 12.8104 16.6521C12.2718 17.2656 11.5123 17.641 10.6979 17.6963H10.6987ZM21.3342 17.6963C20.521 17.6374 19.7635 17.2612 19.2251 16.6489C18.6867 16.0366 18.4105 15.2371 18.4562 14.423C18.4051 13.6073 18.6792 12.8046 19.2186 12.1905C19.758 11.5764 20.5187 11.201 21.3342 11.1465C21.7389 11.171 22.1348 11.2754 22.4989 11.4536C22.8631 11.6319 23.1883 11.8805 23.4559 12.1851C23.7235 12.4898 23.9281 12.8443 24.0579 13.2284C24.1877 13.6125 24.2402 14.0186 24.2123 14.423C24.2624 15.2385 23.9877 16.0406 23.448 16.654C22.9084 17.2674 22.1478 17.6422 21.3326 17.6963H21.3342Z" fill="#FFFFFF"/>
</svg>
