<svg width="17" height="18" viewBox="0 0 27 28" fill="none" xmlns="http://www.w3.org/2000/svg">
<path d="M13.5005 3.23714C17.1053 3.23714 17.5331 3.25091 18.9568 3.31609C22.6158 3.48223 24.3241 5.21804 24.4912 8.85029C24.5564 10.2731 24.5692 10.7008 24.5692 14.3055C24.5692 17.9103 24.5555 18.338 24.4912 19.7608C24.326 23.3848 22.6195 25.1289 18.9568 25.2941C17.5321 25.3593 17.1071 25.373 13.5005 25.373C9.89379 25.373 9.46785 25.3593 8.04501 25.2941C4.37317 25.1261 2.67769 23.383 2.51062 19.759C2.44545 18.3362 2.43168 17.9093 2.43168 14.3037C2.43168 10.6981 2.44637 10.2731 2.51062 8.84845C2.67861 5.21804 4.38235 3.48131 8.04501 3.31425C9.46969 3.24999 9.89562 3.23623 13.5005 3.23623V3.23714ZM13.5005 0.803711C9.83412 0.803711 9.37514 0.819316 7.93486 0.884489C3.02927 1.10938 0.307517 3.83288 0.0816986 8.73738C0.0156053 10.1785 0 10.6375 0 14.3037C0 17.9699 0.0156053 18.4344 0.0807806 19.87C0.305681 24.7727 3.02652 27.498 7.93394 27.7229C9.37514 27.7881 9.83412 27.8037 13.5005 27.8037C17.1668 27.8037 17.6313 27.7881 19.067 27.7229C23.9652 27.498 26.6971 24.7773 26.9183 19.87C26.9844 18.4298 27 17.9699 27 14.3037C27 10.6375 26.9844 10.1785 26.9192 8.7383C26.6989 3.84022 23.9753 1.1103 19.0679 0.885407C17.6249 0.819316 17.1659 0.803711 13.5005 0.803711ZM13.5005 7.3715C12.1291 7.37132 10.7885 7.77781 9.64814 8.53956C8.50782 9.30131 7.61901 10.3841 7.09412 11.651C6.56924 12.9179 6.43186 14.312 6.69936 15.657C6.96685 17.002 7.62721 18.2374 8.59691 19.2071C9.56662 20.1768 10.8021 20.8371 12.1471 21.1046C13.4922 21.3721 14.8863 21.2347 16.1532 20.7098C17.4202 20.185 18.503 19.2962 19.2648 18.1559C20.0266 17.0156 20.4331 15.675 20.4329 14.3037C20.4329 12.4652 19.7025 10.7019 18.4024 9.4019C17.1024 8.10186 15.3391 7.3715 13.5005 7.3715ZM13.5005 18.8043C12.6108 18.8043 11.7412 18.5405 11.0015 18.0463C10.2618 17.5521 9.68528 16.8496 9.34484 16.0277C9.00439 15.2058 8.91532 14.3015 9.08887 13.429C9.26243 12.5565 9.69083 11.755 10.3199 11.126C10.9489 10.497 11.7504 10.0686 12.6229 9.89503C13.4955 9.72148 14.3999 9.81055 15.2218 10.151C16.0437 10.4914 16.7462 11.0679 17.2404 11.8076C17.7347 12.5473 17.9985 13.4169 17.9985 14.3065C17.9985 15.4994 17.5246 16.6434 16.681 17.4869C15.8375 18.3304 14.6934 18.8043 13.5005 18.8043ZM20.7074 5.47781C20.3869 5.47763 20.0735 5.5725 19.807 5.75041C19.5404 5.92832 19.3326 6.18129 19.2098 6.47732C19.0871 6.77335 19.0549 7.09913 19.1173 7.41347C19.1797 7.72781 19.3339 8.01658 19.5605 8.24325C19.787 8.46992 20.0757 8.62432 20.39 8.68691C20.7043 8.7495 21.0302 8.71746 21.3263 8.59487C21.6224 8.47227 21.8755 8.26461 22.0535 7.99816C22.2316 7.73171 22.3267 7.41843 22.3267 7.09796C22.3264 6.6685 22.1558 6.25669 21.8522 5.95293C21.5486 5.64918 21.1368 5.4783 20.7074 5.47781Z" fill="#FFFFFF"/>
</svg>
