<svg width="149" height="85" viewBox="0 0 199 135" fill="none" xmlns="http://www.w3.org/2000/svg">
<path d="M185.627 134.839C187.349 134.931 189.071 134.672 190.689 134.076C192.308 133.481 193.787 132.562 195.039 131.376C196.29 130.19 197.287 128.761 197.968 127.177C198.649 125.593 199 123.887 199 122.163C199 120.439 198.649 118.732 197.968 117.149C197.287 115.565 196.29 114.136 195.039 112.95C193.787 111.764 192.308 110.845 190.689 110.249C189.071 109.654 187.349 109.394 185.627 109.486H147.686C144.215 109.475 140.89 108.091 138.436 105.636C135.983 103.181 134.601 99.8546 134.592 96.3838V89.1993C134.601 85.7294 135.983 82.4041 138.437 79.9505C140.89 77.4969 144.216 76.1146 147.686 76.1059H185.627C187.261 76.3252 188.924 76.1925 190.503 75.7168C192.081 75.2411 193.54 74.4333 194.781 73.3476C196.023 72.2619 197.017 70.9234 197.699 69.4219C198.38 67.9203 198.733 66.2904 198.733 64.6415C198.733 62.9925 198.38 61.3626 197.699 59.8611C197.017 58.3595 196.023 57.021 194.781 55.9353C193.54 54.8497 192.081 54.0419 190.503 53.5662C188.924 53.0905 187.261 52.9578 185.627 53.1771H147.686C144.216 53.1683 140.89 51.786 138.437 49.3324C135.983 46.8788 134.601 43.5535 134.592 40.0836V36.2027C134.601 32.7328 135.983 29.4075 138.437 26.9539C140.89 24.5003 144.216 23.118 147.686 23.1092H185.603C188.866 23.2911 192.069 22.1809 194.519 20.019C196.97 17.857 198.47 14.8172 198.696 11.5572C198.471 8.2982 196.97 5.25936 194.519 3.09968C192.068 0.939993 188.864 -0.166433 185.603 0.0203181L13.0935 0.156325C9.62662 0.169841 6.30545 1.55244 3.85312 4.00306C1.4008 6.45368 0.0159171 9.77389 0 13.2408V121.788C0.0517095 125.157 1.4264 128.371 3.82725 130.735C6.2281 133.099 9.46248 134.425 12.832 134.425C16.2016 134.425 19.436 133.099 21.8368 130.735C24.2377 128.371 25.6124 125.157 25.6641 121.788V37.3785C25.6753 33.9077 27.0596 30.5825 29.5146 28.1291C31.9697 25.6758 35.2959 24.2938 38.7667 24.285H42.569C46.0397 24.2938 49.3659 25.6758 51.821 28.1291C54.276 30.5825 55.6604 33.9077 55.6715 37.3785V121.773C55.4748 123.414 55.6282 125.078 56.1217 126.655C56.6152 128.233 57.4375 129.687 58.5345 130.924C59.6314 132.16 60.9779 133.15 62.4853 133.827C63.9927 134.505 65.6267 134.856 67.2795 134.856C68.9322 134.856 70.5662 134.505 72.0736 133.827C73.581 133.15 74.9275 132.16 76.0245 130.924C77.1214 129.687 77.9437 128.233 78.4372 126.655C78.9307 125.078 79.0841 123.414 78.8874 121.773V37.3785C78.8962 33.9086 80.2785 30.5833 82.7321 28.1297C85.1857 25.6761 88.511 24.2938 91.9809 24.285H97.5846C101.055 24.2938 104.38 25.6761 106.833 28.1297C109.287 30.5833 110.669 33.9086 110.678 37.3785V121.628C110.68 125.106 112.059 128.442 114.512 130.907C116.965 133.373 120.294 134.768 123.772 134.788L185.627 134.839Z" fill="white"/>
</svg>
