<svg width="25" height="20" viewBox="0 0 35 30" fill="none" xmlns="http://www.w3.org/2000/svg">
<path d="M3.079 2.454C4.84996 4.62529 7.0616 6.39599 9.56772 7.64905C12.0738 8.90211 14.8174 9.609 17.617 9.723C17.239 8.182 17.21 3.995 20.147 2.25C21.3407 1.46543 22.7309 1.03228 24.159 1C25.0911 1.00207 26.0128 1.19688 26.866 1.57221C27.7192 1.94755 28.4856 2.49528 29.117 3.181C30.647 2.85537 32.1178 2.29651 33.478 1.524C33.0006 3.084 31.9658 4.41381 30.571 5.26C31.9023 5.14463 33.2073 4.82067 34.438 4.3C33.5117 5.68035 32.3387 6.87805 30.978 7.833C32.01 17.094 23.709 28.608 11.904 28.608C8.07498 28.6289 4.3101 27.6249 1 25.7C2.80472 25.9246 4.63621 25.7829 6.38487 25.2832C8.13353 24.7835 9.76342 23.9362 11.177 22.792C9.61268 22.6996 8.10474 22.1747 6.82127 21.2756C5.53781 20.3765 4.52924 19.1386 3.908 17.7C5.362 18.165 6.743 18.4 7.543 17.7C5.91105 17.2839 4.45577 16.3549 3.39132 15.0498C2.32687 13.7446 1.70948 12.1323 1.63 10.45C2.10999 10.9185 2.67768 11.2878 3.30057 11.5366C3.92346 11.7854 4.58931 11.9089 5.26 11.9C3.797 10.8695 2.76553 9.33556 2.36311 7.5919C1.96068 5.84825 2.21558 4.01742 3.079 2.45V2.454Z" fill="#FFFFFF" stroke="#FFFFFF" stroke-linecap="round" stroke-linejoin="round"/>
</svg>
